<svg width="300" height="200" viewBox="0 0 300 200" fill="none" xmlns="http://www.w3.org/2000/svg">
<rect x="0.5" y="0.5" width="299" height="199" rx="49.5" fill="url(#paint0_linear_152_20)" stroke="#2E3192"/>
<path d="M92.216 66.608L68.312 134H47.768L23.864 66.608H41.336L58.04 117.488L74.84 66.608H92.216Z" fill="white"/>
<path d="M130.28 83.72C130.28 84.68 130.22 85.68 130.1 86.72H106.88C107.04 88.8 107.7 90.4 108.86 91.52C110.06 92.6 111.52 93.14 113.24 93.14C115.8 93.14 117.58 92.06 118.58 89.9H129.5C128.94 92.1 127.92 94.08 126.44 95.84C125 97.6 123.18 98.98 120.98 99.98C118.78 100.98 116.32 101.48 113.6 101.48C110.32 101.48 107.4 100.78 104.84 99.38C102.28 97.98 100.28 95.98 98.84 93.38C97.4 90.78 96.68 87.74 96.68 84.26C96.68 80.78 97.38 77.74 98.78 75.14C100.22 72.54 102.22 70.54 104.78 69.14C107.34 67.74 110.28 67.04 113.6 67.04C116.84 67.04 119.72 67.72 122.24 69.08C124.76 70.44 126.72 72.38 128.12 74.9C129.56 77.42 130.28 80.36 130.28 83.72ZM119.78 81.02C119.78 79.26 119.18 77.86 117.98 76.82C116.78 75.78 115.28 75.26 113.48 75.26C111.76 75.26 110.3 75.76 109.1 76.76C107.94 77.76 107.22 79.18 106.94 81.02H119.78ZM156.093 67.16C160.013 67.16 163.133 68.44 165.453 71C167.813 73.52 168.993 77 168.993 81.44V101H158.793V82.82C158.793 80.58 158.213 78.84 157.053 77.6C155.893 76.36 154.333 75.74 152.373 75.74C150.413 75.74 148.853 76.36 147.693 77.6C146.533 78.84 145.953 80.58 145.953 82.82V101H135.693V67.52H145.953V71.96C146.993 70.48 148.393 69.32 150.153 68.48C151.913 67.6 153.893 67.16 156.093 67.16ZM191.362 101.48C188.082 101.48 185.122 100.78 182.482 99.38C179.882 97.98 177.822 95.98 176.302 93.38C174.822 90.78 174.082 87.74 174.082 84.26C174.082 80.82 174.842 77.8 176.362 75.2C177.882 72.56 179.962 70.54 182.602 69.14C185.242 67.74 188.202 67.04 191.482 67.04C194.762 67.04 197.722 67.74 200.362 69.14C203.002 70.54 205.082 72.56 206.602 75.2C208.122 77.8 208.882 80.82 208.882 84.26C208.882 87.7 208.102 90.74 206.542 93.38C205.022 95.98 202.922 97.98 200.242 99.38C197.602 100.78 194.642 101.48 191.362 101.48ZM191.362 92.6C193.322 92.6 194.982 91.88 196.342 90.44C197.742 89 198.442 86.94 198.442 84.26C198.442 81.58 197.762 79.52 196.402 78.08C195.082 76.64 193.442 75.92 191.482 75.92C189.482 75.92 187.822 76.64 186.502 78.08C185.182 79.48 184.522 81.54 184.522 84.26C184.522 86.94 185.162 89 186.442 90.44C187.762 91.88 189.402 92.6 191.362 92.6ZM224.585 73.1C225.785 71.26 227.285 69.82 229.085 68.78C230.885 67.7 232.885 67.16 235.085 67.16V78.02H232.265C229.705 78.02 227.785 78.58 226.505 79.7C225.225 80.78 224.585 82.7 224.585 85.46V101H214.325V67.52H224.585V73.1ZM237.95 84.2C237.95 80.76 238.59 77.74 239.87 75.14C241.19 72.54 242.97 70.54 245.21 69.14C247.45 67.74 249.95 67.04 252.71 67.04C255.07 67.04 257.13 67.52 258.89 68.48C260.69 69.44 262.07 70.7 263.03 72.26V67.52H273.29V101H263.03V96.26C262.03 97.82 260.63 99.08 258.83 100.04C257.07 101 255.01 101.48 252.65 101.48C249.93 101.48 247.45 100.78 245.21 99.38C242.97 97.94 241.19 95.92 239.87 93.32C238.59 90.68 237.95 87.64 237.95 84.2ZM263.03 84.26C263.03 81.7 262.31 79.68 260.87 78.2C259.47 76.72 257.75 75.98 255.71 75.98C253.67 75.98 251.93 76.72 250.49 78.2C249.09 79.64 248.39 81.64 248.39 84.2C248.39 86.76 249.09 88.8 250.49 90.32C251.93 91.8 253.67 92.54 255.71 92.54C257.75 92.54 259.47 91.8 260.87 90.32C262.31 88.84 263.03 86.82 263.03 84.26Z" fill="white"/>
<path d="M90.462 111.826C92.4727 111.826 94.1973 112.19 95.636 112.918C97.0747 113.646 98.1753 114.695 98.938 116.064C99.7007 117.433 100.082 119.063 100.082 120.952C100.082 122.824 99.7007 124.445 98.938 125.814C98.1753 127.166 97.0747 128.206 95.636 128.934C94.1973 129.645 92.4727 130 90.462 130H85.08V111.826H90.462ZM90.462 128.492C92.9927 128.492 94.9167 127.833 96.234 126.516C97.5687 125.181 98.236 123.327 98.236 120.952C98.236 118.56 97.5687 116.697 96.234 115.362C94.9167 114.01 92.9927 113.334 90.462 113.334H86.9V128.492H90.462ZM105.257 118.326C105.656 117.442 106.263 116.757 107.077 116.272C107.909 115.787 108.923 115.544 110.119 115.544V117.442H109.625C108.308 117.442 107.251 117.797 106.453 118.508C105.656 119.219 105.257 120.406 105.257 122.07V130H103.437V115.804H105.257V118.326ZM113.767 113.126C113.403 113.126 113.091 112.996 112.831 112.736C112.571 112.476 112.441 112.155 112.441 111.774C112.441 111.393 112.571 111.081 112.831 110.838C113.091 110.578 113.403 110.448 113.767 110.448C114.131 110.448 114.443 110.578 114.703 110.838C114.963 111.081 115.093 111.393 115.093 111.774C115.093 112.155 114.963 112.476 114.703 112.736C114.443 112.996 114.131 113.126 113.767 113.126ZM114.677 115.804V130H112.857V115.804H114.677ZM125.455 115.544C127.153 115.544 128.54 116.073 129.615 117.13C130.689 118.17 131.227 119.687 131.227 121.68V130H129.433V121.888C129.433 120.345 129.043 119.167 128.263 118.352C127.5 117.537 126.451 117.13 125.117 117.13C123.747 117.13 122.655 117.563 121.841 118.43C121.026 119.297 120.619 120.571 120.619 122.252V130H118.799V115.804H120.619V118.222C121.069 117.355 121.719 116.697 122.569 116.246C123.418 115.778 124.38 115.544 125.455 115.544ZM142.922 130L137.072 123.63V130H135.252V110.76H137.072V122.148L142.792 115.804H145.34L138.606 122.876L145.392 130H142.922ZM148.654 113.126C148.29 113.126 147.978 112.996 147.718 112.736C147.458 112.476 147.328 112.155 147.328 111.774C147.328 111.393 147.458 111.081 147.718 110.838C147.978 110.578 148.29 110.448 148.654 110.448C149.018 110.448 149.33 110.578 149.59 110.838C149.85 111.081 149.98 111.393 149.98 111.774C149.98 112.155 149.85 112.476 149.59 112.736C149.33 112.996 149.018 113.126 148.654 113.126ZM149.564 115.804V130H147.744V115.804H149.564ZM160.341 115.544C162.04 115.544 163.427 116.073 164.501 117.13C165.576 118.17 166.113 119.687 166.113 121.68V130H164.319V121.888C164.319 120.345 163.929 119.167 163.149 118.352C162.387 117.537 161.338 117.13 160.003 117.13C158.634 117.13 157.542 117.563 156.727 118.43C155.913 119.297 155.505 120.571 155.505 122.252V130H153.685V115.804H155.505V118.222C155.956 117.355 156.606 116.697 157.455 116.246C158.305 115.778 159.267 115.544 160.341 115.544ZM176.093 115.596C177.427 115.596 178.589 115.908 179.577 116.532C180.565 117.156 181.275 117.945 181.709 118.898V115.804H183.529V130.364C183.529 131.664 183.243 132.817 182.671 133.822C182.116 134.827 181.336 135.599 180.331 136.136C179.325 136.691 178.181 136.968 176.899 136.968C175.079 136.968 173.562 136.535 172.349 135.668C171.153 134.801 170.407 133.623 170.113 132.132H171.907C172.219 133.12 172.808 133.909 173.675 134.498C174.559 135.087 175.633 135.382 176.899 135.382C177.817 135.382 178.641 135.183 179.369 134.784C180.097 134.403 180.669 133.831 181.085 133.068C181.501 132.305 181.709 131.404 181.709 130.364V126.854C181.258 127.825 180.539 128.631 179.551 129.272C178.58 129.896 177.427 130.208 176.093 130.208C174.793 130.208 173.623 129.905 172.583 129.298C171.56 128.691 170.754 127.833 170.165 126.724C169.593 125.615 169.307 124.332 169.307 122.876C169.307 121.42 169.593 120.146 170.165 119.054C170.754 117.945 171.56 117.095 172.583 116.506C173.623 115.899 174.793 115.596 176.093 115.596ZM181.709 122.902C181.709 121.758 181.475 120.753 181.007 119.886C180.539 119.019 179.897 118.352 179.083 117.884C178.285 117.416 177.401 117.182 176.431 117.182C175.425 117.182 174.524 117.407 173.727 117.858C172.929 118.309 172.297 118.967 171.829 119.834C171.378 120.683 171.153 121.697 171.153 122.876C171.153 124.037 171.378 125.06 171.829 125.944C172.297 126.811 172.929 127.478 173.727 127.946C174.524 128.397 175.425 128.622 176.431 128.622C177.401 128.622 178.285 128.388 179.083 127.92C179.897 127.452 180.539 126.785 181.007 125.918C181.475 125.051 181.709 124.046 181.709 122.902ZM216.866 111.826L211.718 130H209.69L205.114 114.504L200.434 130L198.458 130.026L193.414 111.826H195.364L199.524 127.764L204.178 111.826H206.206L210.73 127.764L214.916 111.826H216.866ZM218.818 122.876C218.818 121.42 219.104 120.146 219.676 119.054C220.266 117.945 221.072 117.095 222.094 116.506C223.134 115.899 224.304 115.596 225.604 115.596C226.956 115.596 228.118 115.908 229.088 116.532C230.076 117.156 230.787 117.953 231.22 118.924V115.804H233.04V130H231.22V126.854C230.77 127.825 230.05 128.631 229.062 129.272C228.092 129.896 226.93 130.208 225.578 130.208C224.296 130.208 223.134 129.905 222.094 129.298C221.072 128.691 220.266 127.833 219.676 126.724C219.104 125.615 218.818 124.332 218.818 122.876ZM231.22 122.902C231.22 121.758 230.986 120.753 230.518 119.886C230.05 119.019 229.409 118.352 228.594 117.884C227.797 117.416 226.913 117.182 225.942 117.182C224.937 117.182 224.036 117.407 223.238 117.858C222.441 118.309 221.808 118.967 221.34 119.834C220.89 120.683 220.664 121.697 220.664 122.876C220.664 124.037 220.89 125.06 221.34 125.944C221.808 126.811 222.441 127.478 223.238 127.946C224.036 128.397 224.937 128.622 225.942 128.622C226.913 128.622 227.797 128.388 228.594 127.92C229.409 127.452 230.05 126.785 230.518 125.918C230.986 125.051 231.22 124.046 231.22 122.902ZM239.561 117.338V126.152C239.561 127.019 239.726 127.617 240.055 127.946C240.385 128.275 240.965 128.44 241.797 128.44H243.461V130H241.511C240.229 130 239.275 129.705 238.651 129.116C238.027 128.509 237.715 127.521 237.715 126.152V117.338H235.739V115.804H237.715V112.242H239.561V115.804H243.461V117.338H239.561ZM259.307 122.174C259.307 122.798 259.289 123.275 259.255 123.604H247.477C247.529 124.679 247.789 125.597 248.257 126.36C248.725 127.123 249.34 127.703 250.103 128.102C250.865 128.483 251.697 128.674 252.599 128.674C253.777 128.674 254.765 128.388 255.563 127.816C256.377 127.244 256.915 126.473 257.175 125.502H259.099C258.752 126.889 258.007 128.024 256.863 128.908C255.736 129.775 254.315 130.208 252.599 130.208C251.264 130.208 250.068 129.913 249.011 129.324C247.953 128.717 247.121 127.868 246.515 126.776C245.925 125.667 245.631 124.375 245.631 122.902C245.631 121.429 245.925 120.137 246.515 119.028C247.104 117.919 247.927 117.069 248.985 116.48C250.042 115.891 251.247 115.596 252.599 115.596C253.951 115.596 255.129 115.891 256.135 116.48C257.157 117.069 257.937 117.867 258.475 118.872C259.029 119.86 259.307 120.961 259.307 122.174ZM257.461 122.122C257.478 121.065 257.261 120.163 256.811 119.418C256.377 118.673 255.779 118.109 255.017 117.728C254.254 117.347 253.422 117.156 252.521 117.156C251.169 117.156 250.016 117.589 249.063 118.456C248.109 119.323 247.581 120.545 247.477 122.122H257.461ZM264.457 118.326C264.855 117.442 265.462 116.757 266.277 116.272C267.109 115.787 268.123 115.544 269.319 115.544V117.442H268.825C267.507 117.442 266.45 117.797 265.653 118.508C264.855 119.219 264.457 120.406 264.457 122.07V130H262.637V115.804H264.457V118.326Z" fill="white"/>
<defs>
<linearGradient id="paint0_linear_152_20" x1="9.5" y1="9" x2="150" y2="100" gradientUnits="userSpaceOnUse">
<stop stop-color="#2E3192"/>
<stop offset="1" stop-color="#5B68DB"/>
</linearGradient>
</defs>
</svg>
